<?xml version="1.0" ?>
<!-- Uploaded to: SVG Repo, www.svgrepo.com, Generator: SVG Repo Mixer Tools -->
<svg fill="#000000" width="800px" height="800px" viewBox="0 0 24 24" xmlns="http://www.w3.org/2000/svg">
<defs>
<style>.cls-1{fill:none;}</style>
</defs>
<g id="Artwork">
<rect class="cls-1" height="24" width="24"/>
<path d="M20,12.89a8.29,8.29,0,0,0-1.54-3.74l-.24-.31L13.15,2.53a1.42,1.42,0,0,0-2.31,0L6,8.55l-.54.67A8.16,8.16,0,0,0,4,12.89c0,.35-.06.72-.06,1.09a8.07,8.07,0,1,0,16.14,0C20.07,13.61,20,13.24,20,12.89Zm-9.34,7.56a7.16,7.16,0,0,1-5.16-5.31A6.57,6.57,0,0,1,6.92,9.79L9.78,6.22,12,3.46l2.22,2.76,2.87,3.57A6.51,6.51,0,0,1,18.59,14,6.59,6.59,0,0,1,10.67,20.45Z"/>
</g>
</svg>